# xmcd CD database file
#
# Track frame offsets:
#	150
#	14838
#	29059
#	50518
#	70416
#	85528
#	104533
#	117884
#	134640
#	147983
#	170257
#	185173
#	203990
#	223199
#	241423
#	282609
#	298401
#	317431
#
# Disc length: 4466 seconds
#
# Revision: 5
# Processed by: cddbd v1.5.2PL0 Copyright (c) Steve Scherf et al.
# Submitted via: CDex 1.81
#
DISCID=2d117012
DTITLE=John Denver - Take Me Home, Country Roads
DYEAR=2001
DGENRE=Country
TTITLE0=Take Me Home, Country Roads
TTITLE1=Homegrown Tomatoes
TTITLE2=Eagles and Horses
TTITLE3=Ponies
TTITLE4=High, Wide and Handsome
TTITLE5=Hold On To Me
TTITLE6=Whispering Jesse
TTITLE7=Never A Doubt
TTITLE8=Eagle and The Hawk
TTITLE9=I Watch You Sleeping
TTITLE10=For You
TTITLE11=Rocky Mountain High
TTITLE12=To The Wild Country
TTITLE13=The Chosen Ones
TTITLE14=The Foxfire Suite
TTITLE15=Higher Ground
TTITLE16=Raven's Child
TTITLE17=Bread and Roses
EXTD=YEAR: 2001
EXTT0=
EXTT1=
EXTT2=
EXTT3=
EXTT4=
EXTT5=
EXTT6=
EXTT7=
EXTT8=
EXTT9=
EXTT10=
EXTT11=
EXTT12=
EXTT13=
EXTT14=
EXTT15=
EXTT16=
EXTT17=
PLAYORDER=
